<?xml version="1.0" encoding="utf-8"?>
<!-- Generator: Adobe Illustrator 23.0.3, SVG Export Plug-In . SVG Version: 6.00 Build 0)  -->
<svg version="1.1" id="Layer_1" xmlns="http://www.w3.org/2000/svg" xmlns:xlink="http://www.w3.org/1999/xlink" x="0px" y="0px"
	 viewBox="0 0 1200 1200" enable-background="new 0 0 1200 1200" xml:space="preserve">
<path fill="#332A2D" d="M1027.708,201.944c-1.537-21.073,2.123-42.249-6.865-62.033c-7.54-16.597-18.35-32.144-30.263-45.886
	c-13.135-15.15-29.161-28.304-48.71-33.973c-22.664-6.572-48.102-11.129-71.666-9.832c-23.675,1.303-44.075,8.732-65.496,18.136
	c-9.086,3.989-18.522,7.292-26.305,13.651c-8.937,7.301-15.943,18.036-22.926,27.167c-12.896,16.864-20.857,37.935-25.408,58.511
	c-1.101,4.979-1.938,9.997-2.55,15.058c-0.34,2.811-0.144,8.491-4.943,6.312c-1.574-0.715-3.31-6.221-5.674-7.778
	c-5.296-3.489-9.971-1.91-15.406-0.388c-4.712,1.32-6.562,2.362-10.691,5.288c-1.988,1.409-3.372,3.057-6.711,2.119
	c-1.383-0.389-2.596-2.059-4.027-2.749c-3.146-1.517-5.166-0.49-8.361-0.482c-2.602,0.007-2.002,0.208-4.716-0.199
	c-3.164-0.475-5.227-1.479-8.396,0.114c-1.133,0.57-2.474,2.515-3.456,2.923c-2.178,0.905-7.043,0.156-9.421,0.217
	c-1.836,0.048-5.344,0.774-7.071,0.178c-0.894-0.308-2.55-2.504-3.689-3.085c-5.537-2.825-9.521,1.022-14.753,1.237
	c0.452-0.018-3.165,0.543-3.61,0.418c-2.893-0.812-3.874-3.8-7.853-3.84c-3.815-0.038-6.62,2.027-10.005,1.608
	c-4.537-0.561-6.387-0.769-10.85,0.06c-3.94,0.732-10.067,1.399-14.082,0.774c-5.66-0.881-8.023-2.443-13.972-1.27
	c-3.365,0.664-7.61,0.865-11.073,0.643c-2.138-0.137-3.15-1.738-5.739-1.054c-2.166,0.572-2.43,2.382-4.277,2.941
	c-2.735,0.827-6.835,0.124-9.685,0.175c-5.833,0.106-10.072-2.105-15.982-1.23c0.158-0.023-3.731,1.52-3.711,1.526
	c-1.116-0.345-3.162-3.473-4.594-4.193c-4.051-2.035-11.971-1.944-16.094-0.498c-3.865,1.356-4.769,2.486-8.89,2.628
	c-2.918,0.1-2.704,0.502-5.367-0.03c-2.599-0.519-4.09-2.063-6.99-1.576c-3.975,0.667-5.107,4.12-8.501,4.908
	c-6.503,1.51-9.318-2.315-14.5-4.509c-3.955-1.675-8.505-0.609-12.285-0.935c-1.925-0.166-4.079-0.065-5.946-0.243
	c-1.929-0.184-4.122-0.887-6.303-1.008c-4.584-0.254-6.237,3.19-10.015,4.455c-2.844,0.952-9.187,0.865-11.925,0.271
	c-1.848-0.4-3.235-2.128-5.346-2.453c-2.195-0.337-3.848,0.668-5.958,0.818c-4.901,0.349-7.513,0.377-12.188,2.347
	c-3.408,1.436-3.664,0.408-6.453-0.281c-0.277-0.068-4.179-1.097-4.404-1.167c-1.806,0.889-3.117,0.407-3.933-1.448
	c-1.216-1.079-2.597-1.867-4.145-2.364c-4.847-1.5-7.788,0.803-11.599,3.153c-3.074,1.895-2.041,1.993-6.118,2.11
	c-4.07,0.117-8.475,0.584-12.363-0.024c-3.389-0.529-6.574-2.164-9.587-2.935c-2.71-0.693-4.585-0.069-7.119-0.399
	c-1.666-0.217-2.935-1.252-4.836-1.879c-4.127-1.362-7.801-0.175-10.957,2.722c-3.716,3.412-2.254,3.091-6.721,3.609
	c-4.281,0.497-11.13,0.9-15.397,0.023c-6.748-1.386-11.791-6.141-19.259-4.099c-1.914,0.524-5.28,3.317-7.108,3.159
	c0.217,0.019-3.564-2.959-2.487-2.473c-4.798-2.164-9.133-3.184-14.12-0.411c-5.291,2.941-6.729,3.863-13.323,4.025
	c-2.32,0.057-7.688,0.8-9.78-0.19c-2.937-1.39-3.589-4.237-7.536-4.661c-2.779-0.298-4.273,0.869-6.747,1.584
	c-2.719,0.786-3.29,0.564-6.462,0.755c-4.405,0.265-8.16,2.959-10.032,6.959c-1.451,3.101-2.205,9.104-2.201,12.425
	c0.004,3.089,1.238,5.702,3.801,7.428c1.757,1.183,3.578,0.784,5.372,1.539c4.052,1.706,1.636-0.762,3.119,3.5
	c1.633,4.696,2.001,10.117,3.379,14.944c1.471,5.156,3.234,10.229,5.273,15.188c9.734,23.677,25.855,44.339,46.46,59.539
	c14.288,10.54,30.433,18.367,47.282,23.87c9.307,3.04,18.835,5.38,28.463,7.145c7.554,1.385,12.808,1.871,19.222,5.976
	c13.533,8.659,18.887,20.692,23.62,35.364c6.076,18.833,12.162,37.664,18.43,56.434c10.894,32.623,20.279,68.941,40.303,97.415
	c11.134,15.833,24.91,29.787,39.558,42.373c4.948,4.252,10.025,8.356,15.228,12.291c2.477,1.874,6.789,3.917,8.454,6.506
	c1.942,3.019,2.367,8.612,3.129,12.013c1.779,7.934,3.17,15.955,4.382,23.994c4.756,31.564,6.771,63.547,7.865,95.425
	c2.686,78.286,1.038,158.045-11.996,235.465c-1.363,8.096-2.869,16.173-4.664,24.185c-0.424,1.891-0.637,4.251-1.42,6.039
	c-2.076,4.739-7.224,7.928-9.719,12.912c-2.544,5.081-2.027,9.319-2.69,14.654c-0.472,3.804,0.301,2.891-3.26,4.652
	c-4.536,2.243-9.083,4.464-13.638,6.669c-13.31,6.443-26.69,12.743-40.151,18.865c-29.563,13.445-59.831,27.421-91.305,35.81
	c-8.894,2.37-30.256,3.392-29.13,16.82c0.414,4.934,4.702,8.615,8.445,11.298c16.767,12.016,39.942,16.53,59.676,20.645
	c37.787,7.878,76.457,11.618,114.935,14.02c45.193,2.821,89.718,1.89,134.846-1.913c35.022-2.951,70.331-7.098,104.469-15.719
	c15.502-3.914,37.664-8.549,48.83-21.277c16.825-19.179-29.71-24.797-40.577-28.442c-31.622-10.606-62.199-24.534-92.386-38.636
	c-11.347-5.301-22.642-10.711-33.883-16.233c-1.571-0.771-4.269-1.514-5.528-2.727c-0.449-0.433-1.79-0.523-2.114-1.05
	c-0.464-0.757,0.715-6.692,0.595-8.009c-0.366-4.007-1.771-7.866-3.815-11.314c-2.023-3.412-6.566-6.217-8.121-9.49
	c-1.894-3.987-1.681-10.566-2.271-14.857c-1.346-9.791-2.468-19.612-3.46-29.445c-3.49-34.573-5.389-69.306-6.448-104.033
	c-2.275-74.575-3.578-151.522,9.545-225.31c1.163-6.542,2.464-13.076,4.148-19.506c1.37-5.232,2.349-6.344,6.85-9.648
	c27.175-19.95,54.095-44.938,69.036-75.606c15.692-32.208,25.687-67.807,36.79-101.763c8.18-25.015,13.98-67.224,45.38-73.468
	c42.943-8.54,83.914-22.196,112.33-57.665c-3.403,12.142-6.82,24.28-10.326,36.393c-1.853,6.402-9.493,21.004-2.685,25.759
	c8.459,5.909,25.619,4.544,35.416,4.746c11.332,0.233,22.828,0.47,34.143-0.357c44.997-3.288,89.335-29.255,111.181-69.224
	C1025.867,254.465,1029.773,230.272,1027.708,201.944z M186.444,204.243c-1.738,0.306-3.476,0.611-5.214,0.917
	c0.12-2.292,0.389-4.575,0.803-6.832c0.177-0.966,0.428-2.006,1.192-2.623c0.983-0.793,2.444-0.578,3.596-0.06
	s2.202,1.3,3.436,1.572c1.938,0.427,4.103-0.643,4.94-2.442c0.185-0.397,0.356-0.868,0.768-1.018
	c0.41-0.149,0.849,0.102,1.207,0.351c2.829,1.972,4.069,3.457,7.84,3.62c5.558,0.239,11.132,0.126,16.676-0.339
	c2.497-0.209,5.11-0.534,7.157-1.98c1.671-1.18,3.022-3.114,5.06-3.292c3.571-0.312,5.551,4.265,9.053,4.714
	c4.572,0.586,8.193-3.859,12.806-3.394c2.925,0.295,5.696,1.4,8.501,2.279c8.577,2.689,17.796,3.304,26.655,1.778
	c2.652-0.457,5.516-1.263,7.03-3.488c0.679-0.997,1.223-2.359,2.419-2.519c0.719-0.097,1.403,0.313,1.983,0.749
	c1.523,1.145,2.87,2.622,4.676,3.228c1.806,0.606,4.289-0.195,4.545-2.083c6.544,5.57,20.471,3.724,28.57,3.575
	c3.53-0.065,7.573-0.543,9.571-3.453c0.528-0.769,0.973-1.747,1.876-1.981c1.557-0.402,2.475,1.606,3.392,2.927
	c2.301,3.314,5.049,1.528,8.122,1.753c4.078,0.299,7.03,2.055,11.369,0.995c1.589-0.388,3.158-1.628,4.682-1.905
	c1.472-0.268,2.936,0.47,4.482,0.285c1.786-0.214,3.439-1.056,5.208-1.382c3.646-0.672,7.279,0.89,10.912,1.625
	c4.448,0.9,9.143,0.543,13.404-1.021c2.028-0.745,3.978-1.761,6.104-2.147c2.275-0.413,4.609-0.079,6.917,0.054
	c5.017,0.29,10.15-0.363,15.007,0.926c3.432,0.91,6.549,2.751,9.94,3.803c5.848,1.815,12.427,1.128,17.774-1.856
	c0.669-0.373,1.36-0.793,2.126-0.802c1.143-0.014,2.083,0.873,3.175,1.211c2.733,0.846,5.567-1.866,8.352-1.211
	c1.473,0.347,2.748,1.614,4.25,1.431c1.688-0.205,2.559-2.045,3.687-3.316c2.131-2.401,6.087-2.909,8.756-1.123
	c1.582,1.059,2.651,2.742,4.186,3.867c3.199,2.345,6.452,1.042,9.818,0.044c3.458-1.025,5.305-0.516,8.731,0.332
	c7.689,1.903,16.281,1.333,23.585-1.719c0.912,1.442,3.029,1.429,4.662,0.933s3.312-1.309,4.965-0.886
	c1.178,0.302,2.177,1.212,3.391,1.292c2.018,0.133,3.427-1.989,5.332-2.668c2.183-0.778,4.501,0.448,6.712,1.141
	c7.2,2.26,15.024-1.194,22.495-0.137c2.338,0.331,4.608,1.102,6.962,1.273c2.594,0.188,3.779-0.999,5.975-1.723
	c2.284-0.753,3.674-0.1,5.871,0.983c4.601,2.268,10.232,2.327,14.88,0.157c0.929-0.434,1.885-0.965,2.908-0.886
	c1.196,0.093,2.146,0.987,3.095,1.72c3.971,3.068,8.765,3.094,13.549,3.045c5.403-0.055,10.801-1.42,15.543-4.021
	c0.593-0.325,1.253-0.681,1.91-0.52c0.994,0.244,1.345,1.47,2.114,2.145c2.485,2.183,4.886-1.367,7.07-1.915
	c3.06-0.768,6.536,1.822,9.187,2.977c4.9,2.136,11.078,0.871,14.744-3.02c1.094-1.161,2.153-2.813,3.761-3.313
	c1.184-0.368,2.43,0.1,3.694-0.225c2.048-0.527,4.954-3.652,7.085-1.752c1.026,0.915,0.927,2.503,1.16,3.858
	c0.645,3.762,4.463,6.385,8.269,6.68c3.806,0.295,7.521-1.276,10.775-3.272c3.353-2.057,6.923-4.719,10.788-3.986
	c3.121,0.593,5.421,3.281,8.393,4.405c6.095,2.305,12.715-2.467,19.2-1.834c5.334,0.521,10.327,4.673,15.511,3.315
	c4.247-1.113,7.254-5.727,11.644-5.781c3.117-0.039,5.728,2.281,8.711,3.187c5.231,1.59,10.778-1.308,16.238-1.022
	c4.869,0.255,9.457,3.039,14.317,2.648c5.79-0.466,10.564-5.335,16.366-5.617c6.494-0.315,12.387,5.216,18.82,4.274
	c1.385-0.203,3.269-0.447,3.749,0.868c0.264,0.724-0.136,1.512-0.575,2.145c-4.915,7.073-14.893,7.85-23.506,7.944
	c-7.232,0.079-14.528,0.152-21.617-1.278c-5.091-1.027-10.49-2.801-15.304-0.852c-3.32,1.344-6.699,4.409-9.937,2.879
	c-2.663-1.258-4.029-5.338-6.949-4.952c-2.134,0.282-3.32,2.976-5.455,3.254c-2.819,0.366-5.102-3.699-7.77-2.718
	c-1.565,0.575-2.368,2.737-4.035,2.768c-1.276,0.024-2.147-1.238-3.256-1.87c-3.149-1.793-6.701,1.787-10.31,2.112
	c-2.384,0.214-4.634-1.033-6.988-1.461s-5.428,0.568-5.642,2.951c-2.03-4.905-8.794-5.651-13.907-4.223
	c-5.113,1.429-10.077,4.256-15.356,3.695c-2.724-0.29-5.68-1.438-8.04-0.048c-1.145,0.675-1.976,1.887-3.251,2.263
	c-1.539,0.455-3.103-0.457-4.627-0.962c-5.129-1.7-10.624,1.24-16.024,1.064c-3.151-0.103-6.158-1.265-9.244-1.907
	c-5.794-1.206-11.964-0.532-17.361,1.896c-1.276,0.574-2.704,1.257-4.01,0.755c-1.317-0.505-1.924-1.991-2.904-3.005
	c-2.421-2.505-7.461-1.11-8.25,2.283c-2.442-3.059-5.083-7.982-9.811-6.846c-1.277,0.307-2.414,1.111-3.717,1.27
	c-1.471,0.179-2.919-0.489-4.4-0.5c-3.338-0.026-6.276,3.227-9.537,2.512c-1.423-0.312-2.564-1.336-3.83-2.059
	c-1.265-0.723-2.974-1.109-4.102-0.186c-1.006,0.823-1.102,2.296-1.619,3.488c-1.412,3.252-5.89,3.988-9.239,2.824
	s-6.065-3.637-9.205-5.283c-0.615-0.322-1.285-0.62-1.976-0.556c-2.954,0.276-3.535,3.923-7.188,3.776
	c-3.147-0.127-7.028-2.599-9.934-0.366c0.86-0.661-5.818-2.41-6.836-2.148c-2.954,0.76-5.219,3.254-7.809,4.719
	c-2.45,1.385-5.806,1.954-7.893,0.066c-1.503-1.359-2.03-3.725-3.849-4.617c-2.894-1.42-6.037,2.037-9.249,1.766
	c-2.796-0.236-5.102-3.271-7.827-2.604c-1.813,0.444-3.002,2.436-4.854,2.672c-2.206,0.281-3.955-2.046-6.168-2.257
	c-2.525-0.24-4.5,2.282-7.002,2.697c-2.081,0.345-4.072-0.809-5.989-1.691c-1.916-0.882-4.343-1.464-6.002-0.162
	c-1.174,0.921-1.798,2.676-3.269,2.925c-1.801-2.212-4.494-4.669-7.105-3.521c-1.468,0.646-2.265,2.245-3.561,3.19
	c-5.431,3.96-9.404-7.005-14.537-1.893c-2.324,2.315,0.412,3.493-2.636,3.522c-1.576,0.015-3.149-2.448-4.57-2.971
	c-3.847-1.415-5.719,0.974-9.253-0.652c-2.552-1.176-3.273-4.582-6.878-3.37c-2.142,0.721-3.503,3.23-2.937,5.418
	c0.213,0.823-4.533-1.929-4.824-2.212c-1.491-1.452-2.239-3.154-4.545-3.453c-5.333-0.691-4.114,5.098-9.608,3.361
	c-2.918-0.923-2.601-2.152-6.206-1.596c-3.422,0.527-0.257,3.3-3.932,1.698c-2.872-1.252-2.472-5.764-7.027-4.234
	c-3.803,1.277-1.463,5.077-3.768,6.441c0-5.835-10.605,1.275-12.212,1.168c-5.907-0.391-5.561-8.577-11.041-8.671
	c-1.776-0.03-2.397,1.156-3.732,1.777c-3.388,1.576-5.26,2.126-9.1,2.055c-2.985-0.055-5.014-0.988-7.309,1.491
	c-1.577,1.703-0.556,3.437-2.934,4.855c-1.974-4.772-5.144-1.945-7.919-1.104c-3.478,1.054-2.353,0.492-5.443-1.237
	c-6.594-3.69-6.049,1.867-11.941,3.282c-6.641,1.595-7.648-5.157-13.625-4.505c-2.573,0.281-3.782,2.214-6.53,0.167
	c-2.545-1.895-1.521-4.914-5.839-4.917c-2.946-0.002-5.015,3.472-7.999,3.686c-3.345,0.24-2.436-1.116-5.199-1.773
	c-6.558-1.56-7.732,7.65-15.203,6.726c-3.567-0.441-3.79-2.121-5.892-3.91c-3.128-2.662-3.38-1.537-6.949-1.44
	c-5.308,0.143-1.774,0.259-5.874-2.687c-2.938-2.112-7.927-2.006-8.151,2.775c-1.088-0.567-1.08-2.721-2.308-3.551
	c-2.889-1.952-5.029-0.348-7.487,1.463c0.398-0.293-2.091-2.352-2.55-2.458c-1.182-0.274-2.128,0.272-3.076,0.913
	c-2.388,1.616-3.11,4.915-5.782,6.22c-1.787,0.873-3.953,0.485-5.763-0.342c-1.809-0.826-3.409-2.054-5.194-2.932
	c-1.785-0.877-3.902-1.388-5.758-0.67c-1.855,0.718-3.15,3.027-2.233,4.792c-2.705-0.049-4.597-3.452-7.287-3.166
	c-1.873,0.199-3.224,2.17-5.105,2.263c-2.453,0.121-3.593-2.563-5.291-3.816c-2.726-2.012-6.043-1.64-9.224-1.08
	C187.783,204.007,187.113,204.125,186.444,204.243z M910.59,316.978c-4.761-31.596-17.169-62.411-19.937-94.225
	c-1.346-15.47,15.063-14.381,25.823-13.925c16.203,0.688,32.349,2.428,48.568,2.806c7.609,0.177,15.236,0.077,22.809-0.739
	c1.52-0.164,8.324-2.217,9.777-1.488c0.701,0.352,1.636,3.574,1.874,4.19c3.725,9.653,3.661,20.307,1.851,30.371
	c-2.429,13.507-8.807,22.72-18.944,31.716c-3.853,3.419-6.817,5.691-8.856,10.473c-1.03,2.416-1.802,4.907-3.343,7.071
	c-6.55,9.199-21.256,15.534-31.167,19.673C930.092,316.64,920.253,319.005,910.59,316.978z M781.777,274.878
	c-9.482-8.913-15.321-23.213-18.561-35.521c10.49,0.141,20.979,0.32,31.467,0.528c-3.298,2.321-12.603,6.847-12.796,11.67
	c-0.259,6.474,6.03,4.493,9.153,2.475c5.025-3.247,9.721-7.14,14.686-10.505c6.911-4.684,14.493-3.053,22.695-2.986
	C813.609,252.942,798.086,264.516,781.777,274.878z M405.556,230.709c-38.347-1.67-76.739-1.35-115.111-1.203
	c-18.868,0.072-37.737,0.101-56.604-0.158c-9.464-0.13-18.928-0.33-28.388-0.638c-2.087-0.068-4.617,0.217-6.652-0.234
	c-3.704-0.82-2.666,0.241-4.099-3.361c-1.437-3.613-1.692-8.526-2.108-12.399c0.036,0.331,3.395,3.07,3.825,3.461
	c1.51,1.372,3.011,2.489,5.186,2.216c2.217-0.278,4.13-1.844,6.431-1.611c2.268,0.23,4.112,2.101,6.424,2.319
	c3.982,0.375,7.104-2.73,10.86-1.298c6.313,2.406,13.327-0.39,19.35-3.451c1.604-0.815,3.392-1.677,5.13-1.208
	c1.732,0.468,2.957,2.165,4.718,2.51c2.33,0.457,4.609-1.624,6.936-1.151c0.658,0.134,1.256,0.464,1.885,0.696
	c2.06,0.76,4.35,0.44,6.517,0.799c3.032,0.501,5.666,2.291,8.452,3.59c5.753,2.683,10.852,0.315,16.235-2.113
	c4.371-1.972,1.456-1.252,6.514-1.258c2.678-0.004,4.971-2.321,7.576-2.357c2.832-0.039,4.471,2.956,7.035,3.762
	c2.055,0.646,4.274-0.158,6.423-0.025c2.957,0.183,5.488,2.094,8.27,3.116c3.959,1.454,8.569,1.011,12.179-1.169
	c0.708-0.427,1.425-0.933,2.251-0.973c1.318-0.063,2.36,1.052,3.567,1.584c2.835,1.25,6.034-0.827,9.129-0.692
	c2.88,0.126,5.343,1.656,8.126,0.303c2.619-1.273,3.677-4.319,6.243-5.658c1.001-0.522,7.807-0.63,9.151-0.646
	c5.353-0.062,1.004-0.705,5.163,1.589c5.99,3.304,9.231,4.089,16.029,3.117c3.835-0.548,7.498-1.25,11.465-2.065
	c2.672-0.549,1.8,0.085,4.619,0.091c2.383,0.005,5.305-1.11,7.391-1.056c2.373,0.061,4.286,1.781,7.002,1.529
	c3.687-0.342,4.105-1.334,7.42-0.76c2.309,0.4,4.262,1.716,6.718,1.856c3.493,0.199,5.34-2.201,8.174-2.52
	c4.145-0.467,9.746,1.935,13.377,3.379c5.454,2.169,6.359-0.772,11.212-1.301c2.211-0.241,4.994,1.964,7.72,1.617
	c3.096-0.395,4.38-3.262,7.845-2.069c1.822,0.627,3.583,1.753,5.501,1.575c2.315-0.215,4.102-2.275,6.396-2.654
	c2.46-0.405,4.837,1.204,7.329,1.193c2.364-0.011,4.534-1.476,6.898-1.514c2.823-0.046,5.593,1.943,8.297,1.13
	c1.488-0.447,2.735-1.71,4.289-1.718c0.81-0.004,1.573,0.341,2.345,0.588c2.136,0.683,4.432,0.622,6.639,1.019
	c8.751,1.571,15.914,7.394,24.537,1.256c0.806-0.574,1.596-1.24,2.562-1.452c1.205-0.264,2.428,0.23,3.604,0.603
	c4.447,1.412,9.168,1.139,13.735,0.6c3.683-0.435,7.853-1.93,11.467-0.636c4.224,1.513,9.958,3.41,14.524,2.918
	c1.915-0.206,3.541-0.609,5.176-1.72c3.698-2.515,1.977-1.971,5.869-2.903c3.303-0.791,6.684-1.117,10.073-1.196
	c2.069-0.049,6.408-1.144,8.114,0.003c1.086,0.731,1.822,1.871,2.796,2.747c2.195,1.973,5.34,2.408,8.285,2.605
	c4.88,0.326,9.473,0.422,14.339-0.285c5.043-0.732,10.124-1.792,15.243-1.221c3.623,0.404,7.192,1.621,10.827,1.336
	c2.497-0.196,4.877-1.093,7.222-1.972c3.042-1.141,4.152-0.33,6.772,0.821c3.169,1.391,6.793,1.036,10.094,0.385
	c1.138-0.224,11.119-1.449,11.005-2.282c0.633,4.606,1.521,9.171,2.575,13.698c-51.596-0.268-103.169,0.898-154.738,2.463
	C519.73,233.99,462.709,233.205,405.556,230.709z M738.386,215.729c5.35-0.999,5.552-4.424,10.756-0.102
	c3.231,2.683,2.429-0.389,2.954,4.587c0.335,3.177-0.216,6.509,0.109,9.744c-3.431-0.037-9.677,0.884-11.33-1.453
	C738.996,225.846,738.838,218.847,738.386,215.729z M753.762,239.24c3.31,14.426,9.841,29.702,20.018,40.662
	c-1.941,1.353-3.865,3.567-5.996,4.574c-3.595,1.7-1.446,2.534-4.623,0.621c-4.187-2.521-9.539-11.624-12.278-15.53
	c-6.234-8.889-8.372-19.734-8.708-30.441C746.037,239.158,749.899,239.197,753.762,239.24z M825.752,231.25
	c7.442-3.076,2.039-10.809-4.874-7.946c-4.376,1.812-8.472,6.419-12.919,7.614c-2.148,0.577-5.795-0.147-8.047-0.198
	c-10.316-0.233-20.634-0.399-30.952-0.55c-7.033-0.103-8.274,0.554-7.852-7.043c0.094-1.689-0.062-4.543,0.909-6.057
	c1.989-3.1,1.978-1.462,5.717-1.798c1.989-0.179,3.989-0.882,5.987-0.869c2.344,0.015,4.559,1.169,6.924,0.917
	c1.82-0.193,3.535-1.236,5.357-1.068c1.638,0.151,3.099,1.268,4.743,1.266c1.455-0.002,2.741-0.872,4.085-1.429
	c3.13-1.297,3.939,1.089,6.529,2.02c3.766,1.354,7.694,0.773,11.467-0.217c3.637-0.954,5.394-2.175,8.739-1.681
	c3.584,0.529,6.693,2.129,10.502,2.03c4.155-0.108,7.896,0.497,12.053,0.408c4.591-0.098,7.668-1.846,12.243-1.108
	c-3.849,3.623-7.716,7.227-11.633,10.776c-2.42,2.193-4.184,4.224-7.204,4.966C834.075,232.133,829.308,231.289,825.752,231.25z
	 M862.286,222.696c-0.194,1.109-0.806,6.811-1.599,7.47c-1.186,0.986-5.83,0.594-7.169,0.675
	C856.461,228.149,859.381,225.43,862.286,222.696z M872.477,212.747c6.601-5.794,16.571-9.033,11.314-20.546
	c-1.89-4.138-5.605-5.812-10.009-5.84c-5.044-0.032-5.791-0.724-10.759-2.475c3-0.665,5.953-4.132,8.384-4.546
	c1.021-0.174,3.521,1.227,4.701,1.391c1.321,0.184,5.757-0.798,6.51-0.408c1.47,0.762,5.325,7.599,5.8,8.891
	c1.757,4.779,1.566,8.053,4.735,12.739c-6.108,3.172-10.903,8.669-11.992,15.594c-2.843-1.189-5.744-1.605-8.755-0.801
	C872.536,215.521,872.791,213.993,872.477,212.747z M996.898,200.095c-15.327,3.411-31.509,2.497-47.058,1.572
	c-8.626-0.513-17.24-1.222-25.868-1.713c-4.116-0.234-8.235-0.439-12.357-0.535c-1.991-0.046-6.869,0.894-8.721-0.044
	c-3.217-1.63-5.717-7.809-3.999-9.91c2.041-2.496,8.339-4.496,11.172-6.243c9.621-5.932,18.843-12.524,27.954-19.204
	c9.506-6.969,18.867-14.137,28.104-21.46c3.564-2.826,7.346-7.077,11.367-9.176c3.546-1.851,3.927-1.302,7.285,1.665
	C1002.098,150.352,1003.373,179.395,996.898,200.095z M894.816,181.113c-6.612-3.625-2.006-9.548,0.154-14.397
	c2.394-5.374,4.502-10.876,6.473-16.417c4.407-12.388,8.087-25.029,11.539-37.713c1.578-5.8,3.093-11.617,4.608-17.434
	c0.212-0.815,1.392-7.754,2.18-8.313c1.027-0.728,5.781,0.243,7.009,0.337c11.738,0.905,22.029,3.345,30.184,12.307
	c4.292,4.717,17.667,20.856,14.946,26.488c-1.446,2.993-8.12,6.622-10.81,8.762c-4.832,3.842-9.705,7.633-14.613,11.379
	C930.297,158.467,913.426,172.501,894.816,181.113z M908.619,92.823c-5.106,19.656-10.309,39.373-17.398,58.425
	c-1.704,4.578-6.771,24.515-14.884,20.164c-3.184-1.708-3.69-9.348-4.592-12.585c-1.869-6.702-3.69-13.418-5.503-20.136
	c-3.479-12.893-6.902-25.801-10.457-38.673c-1.294-4.685-4.633-11.408-2.919-15.897c1.618-4.239,6.813-7.617,10.785-9.385
	c10.452-4.653,22.851-2.338,33.417,0.664c3.514,0.998,8.566,2.164,11.419,4.644C912.806,83.8,910.024,87.418,908.619,92.823z
	 M843.158,89.356c7.054,24.515,13.293,49.256,20.179,73.819c1.308,4.667,4.08,9.407-1.695,11.568
	c-3.418,1.279-7.726-0.156-10.804-1.681c-8.841-4.381-16.66-13.23-23.975-19.648c-7.966-6.99-15.86-14.063-24.06-20.781
	c-4.152-3.401-10.413-6.755-13.811-10.854c-2.445-2.95-2.899-2.295-1.432-6.7c0.82-2.462,1.967-4.876,3.246-7.13
	C801.077,89.853,823.813,81.932,843.158,89.356z M781.694,127.886c12.132,9.084,23.621,18.89,34.984,28.906
	c9.757,8.601,20.226,20.643,32.446,25.601c-3.856,0.493-7.101,2.882-10.629,4.272c-3.797,1.496-4.153,1.268-8.03-0.199
	c-4.343-1.643-8.348-2.268-12.995-1.951c-3.601,0.245-7.252,1.763-10.233,1c-3.303-0.845-5.23-3.256-9.239-2.989
	c-3.345,0.223-6.986,2.02-9.847,3.654c-5.812,3.32-6.658,2.818-12.516,0.558c-3.635-1.402-7.154-1.561-10.994-0.826
	c-1.764,0.338-7.388,3.334-9.055,1.773c-1.973-1.847,1.388-15.033,1.907-17.473C760.956,153.925,769.36,139.104,781.694,127.886z
	 M563.802,997.417c0.825,4.135,7.687,7.633,9.654,11.643c3.272,6.67-2.408,15.562,3.033,19.981
	c4.613,3.746,12.11,6.029,17.402,8.609c25.968,12.66,52.194,24.847,78.843,36.009c14.335,6.005,28.809,11.761,43.574,16.632
	c5.922,1.953,11.897,3.781,17.962,5.241c3.895,0.938,16.488,1.46,17.886,5.52c2.539,7.368-27.642,15.928-31.847,17.193
	c-27.642,8.313-56.571,12.577-85.177,15.894c-40.766,4.728-82.553,8.3-123.608,6.914c-42.027-1.419-84.147-4.302-125.74-10.67
	c-23.591-3.611-47.814-7.894-70.163-16.561c-5.351-2.075-11.262-4.36-15.729-8.078c-9.28-7.724,9.001-8.811,14.827-10.213
	c29.24-7.038,57.399-19.754,84.786-31.922c22.726-10.098,45.22-20.737,67.486-31.812c1.69-0.841,4.034-1.559,5.509-2.757
	c5.435-4.411-0.217-13.911,3.49-20.692c2.818-5.154,8.095-7.428,9.785-13.029c4.113-13.64,6.097-28.247,8.237-42.281
	c5.042-33.067,7.852-66.472,9.498-99.868c2.304-46.751,2.43-93.697,0.37-140.459c-0.761-17.263-1.869-34.517-3.548-51.717
	c-0.621-6.366-1.32-12.725-2.123-19.07c-0.288-2.275-1.501-6.289-0.344-7.844c2.085-2.804,9.461-4.051,12.717-4.813
	c9.953-2.328,20.573-2.31,30.599-0.443c4.151,0.773,8.256,1.877,12.188,3.425c5.552,2.186,4.669,2.611,3.964,8.069
	c-1.86,14.381-3.195,28.829-4.22,43.292c-3.176,44.79-3.462,89.766-2.685,134.644c0.992,57.286,3.183,115.317,12.159,172.011
	C562.963,992.652,563.34,995.044,563.802,997.417z M835.726,278.589c-1.469-1.905-2.88-4.533-4.727-6.056
	c-3.269-2.696-8.514-2.747-8.454,2.834c0.042,3.875,6.277,6.267,6.365,9.544c0.055,2.049-3.015,4.067-4.907,5.779
	c-1.111-4.026-7.977-11.076-12.091-7.466c-3.963,3.476,2.15,11.228,5.723,12.888c-15.941,12.674-34.574,21.536-54.011,27.392
	c-17.094,5.149-35.748,4.67-50.573,15.305c2.941-8.572-14.918-7.157-19.346-6.273c-7.176,1.433-16.12,8.072-17.705,15.741
	c-0.766,3.708,1.373,7.856,5.845,6.33c3.345-1.141,4.28-6.375,6.549-8.816c6.069-6.528,12.932-3.257,20.613-3.861
	c-16.597,13.992-20.62,36.307-27.019,56.027c-8.15,25.115-16.367,50.221-25.288,75.075c-7.176,19.993-14.273,40.039-26.904,57.348
	c-8.329,11.414-18.084,21.747-28.438,31.336c-1.061,0.983-5.29,6.018-6.606,5.939c-2.215-0.132-3.372-4.617-6.38-4.664
	c-8.096-0.128-3.575,7.832-0.704,10.659c-1.505,1.237-3.021,2.461-4.548,3.671c-2.382-3.176-8.176-11.78-12.888-7.066
	c-4.428,4.431,3.142,9.497,5.536,12.713c-3.009,2.236-3.572,3.426-6.638,2.271c-2.66-1.002-3.721-4.253-6.904-4.138
	c-3.809,0.138-5.152,3.617-3.804,6.751c1.114,2.59,4.17,3.173,5.713,5.194c2.362,3.096,0.724,5.482-0.198,9.336
	c-1.773,7.417-3.157,14.93-4.37,22.457c-19.203-8.591-44.72-9.568-63.811-0.095c-1.524-9.44-4.871-19.03-5.921-28.467
	c-0.475-4.272,0.72-5.503,3.639-9.225c2.359-3.008,7.63-7.909,2.869-11.439c-4.315-3.2-7.786,2.73-10.01,5.536
	c-2.282,2.879-2.188,4.699-5.219,2.959c-3.814-2.19-1.14-3.263,0.637-5.728c1.941-2.694,5.063-6.523,0.369-8.96
	c-4.697-2.438-8.61,4.233-10.628,7.326c-4.41-3.512-2.313-14.187-7.18-17.888c-4.226-3.214-9.348,0.539-7.376,5.557
	c-17.285-15.572-33.726-33.395-43.789-54.593c-7.564-15.934-13.212-32.876-19-49.509c-7.48-21.497-14.566-43.129-21.584-64.78
	c-5.384-16.61-8.995-36.021-21.4-49.029c4.288,1.291,8.253,3.612,11.485,6.702c2.64,2.525,5.713,9.04,10.333,5.957
	c7.628-5.089-7.079-15.663-10.949-17.929c-3.978-2.329-8.805-4.397-13.457-4.792c-2.151-0.182-4.458,1.09-5.961,1.098
	c-1.984,0.011-3.761-1.113-6.13-2.475c-7.494-4.311-15.093-4.665-23.498-6.329c-32.608-6.455-64.376-20.41-87.33-45.037
	c5.121-2.095,10.096-6.122,14.931-8.835c0.557,2.494,2.715,5.924,2.499,8.402c-0.238,2.738-4.924,5.563-1.057,9.006
	c0.956,0.851,2.122,0.573,3.063,1.153c0.378,0.233,1.653,1.435,2.018,1.591c2.26,0.967,3.983,2.431,6.385,0.455
	c2.282-1.878,0.418-3.842,1.262-5.617c0.547-1.15,0.445-0.475,1.854-1.775c3.115-2.873,19.866-6.389,14.17-13.506
	c-3.965-4.955-14.93,3.478-18.961,5.55c-0.84-2.785-1.296-7.308-3.43-9.484c2.908-1.509,6.744-2.961,5.674-7.009
	c-1.243-4.7-5.551-3.284-8.707-1.855c-4.218,1.911-8.282,4.384-12.291,6.693c-3.665,2.111-10.95,4.914-13.132,8.652
	c-9.497-11.714-16.848-25.129-21.681-39.411c16.799,0.637,33.61,0.927,50.42,1.044c8.936,0.062,17.871,0.074,26.807,0.061
	c4.436-0.006,8.871-0.02,13.307-0.035c1.664-0.006,8.927-1.005,10.145-0.041c1.176,0.931,3.44,5.541,5.345,7.273
	c2.002,1.82,4.34,4.956,6.887,6.043c5.455,2.328,8.38-2.865,5.496-7.312c-1.474-2.272-4.631-4.21-6.647-6.043
	c5.155-0.02,10.309-0.045,15.464-0.052c-1.326,4.501,6.751,11.154,9.298,14.157c1.63,1.923,4.131,6.208,6.774,6.89
	c6.686,1.725,6.385-4.861,4.03-8.526c-2.853-4.441-7.163-8.511-10.645-12.497c9.423,0.011,18.846,0.071,28.269,0.2
	c5.302,0.072,7.335-0.359,11.132,2.81c2.682,2.239,5.045,5.264,7.328,7.88c2.609,2.989,9.462,14.296,13.776,7.194
	c3.253-5.356-7.379-14.031-10.545-17.445c19.446,0.525,38.875,1.496,58.317,2.142c9.892,0.329,19.786,0.606,29.682,0.815
	c6.24,0.132,15.847-1.439,21.237,1.157c6.319,3.044,10.091,11.677,16.617,14.351c5.886,2.411,8.348-3.597,4.898-7.825
	c-2.215-2.715-5.629-4.932-8.276-7.251c3.474,0.012,9.461-1.162,12.654-0.026c2.317,0.825,5.318,4.287,7.179,5.924
	c5.431,4.779,9.628,12.086,15.197,16.368c4.957,3.812,9.553,0.068,7.391-5.587c-2.305-6.029-10.804-12.582-15.5-16.809
	c53.499-0.688,106.951-3.181,160.462-3.502c6.021-0.036,12.042-0.056,18.063-0.058c3.395-0.001,17.57-2.139,20.067,0.053
	c1.093,0.96,0.875,10.438,1.191,12.291c1.021,5.99,2.669,11.977,5.434,17.413c2.696,5.299,6.645,9.85,10.313,14.488
	c2.835,3.584,5.882,9.04,9.594,11.717c7.484,5.399,18.123-6.522,24.324-10.41c13.333-8.36,26.183-17.453,38.56-27.172
	c5.665-4.448,11.231-9.021,16.705-13.702c5.405-4.623,11.853-3.252,18.812-3.876c-2.572,7.474-5.899,14.699-9.881,21.525
	c-3.253-4.181-11.521-4.688-9.686,2.554c0.483,1.908,3.295,2.932,3.7,4.643C842.653,271.514,837.974,275.93,835.726,278.589z
	 M861.889,254.053c2.059-7.468,5.177-15.493,7.854-22.816c1.898-5.193,8.799-8.408,12.686-1.988
	c1.692,2.795,1.536,9.407,2.187,12.73c0.87,4.445,1.835,8.87,2.843,13.285c2.234,9.784,4.704,19.512,7.032,29.273
	c2.173,9.113,4.256,18.255,5.889,27.483c0.79,4.463,2.075,6.554-1.666,9.247c-2.383,1.715-6.23,2.363-8.995,2.883
	c-14.672,2.761-32.489,1.444-46.771-2.775C849.426,298.981,855.674,276.52,861.889,254.053z M1018.497,235.147
	c-4.815,37.981-32.09,70.543-64.67,88.589c-17.131,9.489-36.211,14.815-55.742,15.954c-19.34,1.127-40.862,1.936-59.805-2.604
	c0.408-1.152,1.261-6.38,2.07-6.823c0.879-0.481,6.702,1.642,7.598,1.816c6.521,1.272,13.171,1.86,19.803,2.145
	c9.988,0.429,20.603,0.708,30.185-2.575c4.477-1.534,8.028-5.038,12.324-5.293c3.004-0.179,6.239,0.762,9.325,0.657
	c12.497-0.423,24.287-5.533,35.049-11.527c8.04-4.478,17.835-9.266,23.267-17.05c1.623-2.326,2.546-4.883,3.711-7.439
	c2.362-5.183,6.477-7.781,10.594-11.707c17.389-16.583,24.463-43.121,16.943-66.277c-0.811-2.498-2.917-5.41-3.326-7.939
	c-0.6-3.712,1.636-8.814,2.234-12.795c1.665-11.07,2.145-23.219-0.232-34.229c-2.347-10.869-8.31-22.031-16.571-29.574
	c-2.25-2.054-5.1-3.314-7.34-5.255c-2.633-2.282-3.799-5.441-5.57-8.685c-5.419-9.925-11.939-20.375-20.988-27.397
	c-4.624-3.588-10.002-5.721-15.654-7.102c-6.608-1.613-13.883-0.762-20.312-2.42c-4.412-1.137-8.302-6.01-13.074-8.144
	c-6.557-2.932-13.965-4.637-21.037-5.743c-12.906-2.018-27.082-0.505-36.992,8.82c-1.386,1.304-4.271,6.924-5.788,7.442
	c-1.771,0.605-9.895-2.464-12.065-2.666c-7.991-0.743-15.835,0.86-23.317,3.622c-14.422,5.325-25.586,16.728-30.433,31.442
	c-1.225,3.719-1.551,6.171-3.914,9.192c-2.3,2.941-5.439,5.362-7.867,8.254c-4.67,5.562-8.622,11.732-11.735,18.292
	c-5.17,10.895-8.023,22.802-8.689,34.83c-3.116-0.865-6.431-0.989-9.601-0.339c1.769-14.167,5.704-28.256,11.208-41.422
	c5.982-14.307,14.812-25.646,24-37.91c4.708-6.284,9.2-12.332,15.818-16.733c6.746-4.486,14.573-7.048,21.924-10.331
	c14.94-6.674,29.385-12.596,45.676-15.128c18.122-2.816,36.052-2.087,53.978,1.579c14.685,3.004,30.009,4.765,43.429,11.844
	c24.279,12.807,42.701,37.739,55.535,61.386c8.111,14.946,9.202,27.649,9.055,44.283
	C1017.34,198.536,1020.816,216.825,1018.497,235.147z M553.798,602.556c-5.706,2.538-15.866,1.528-22.069,1.732
	c-8.169,0.269-34.902,3.172-35.753-7.618c0.23-1.139,0.8-2.067,1.71-2.785c-0.64-1.768-0.354-3.375,0.857-4.821
	c0.374-0.704,1.316-1.358,1.796-1.958c1.482-1.852,4.162-5.797,6.619-6.678c5.606-2.01,7.238,3.508,5.222,7.475
	c-1.084,2.133-3.8,4.144-5.429,5.921c1.594,0.227,6.182,1.62,7.776,0.874c0.24-0.112,2.932-4.239,3.751-5.01
	c2.784-2.62,7.044-7.847,10.646-9.063c3.37-1.138,6.899,0.426,6.732,4.477c-0.161,3.901-6.855,7.638-9.546,10.036
	c3.796-0.011,7.591-0.175,11.379-0.419c-2.677-4.098,5.312-11.621,9.359-12.39c4.031-0.766,6.941,2.917,5.331,6.67
	c-0.857,1.998-4.052,3.707-5.659,4.992c2.085-0.201,4.169-0.417,6.251-0.649C559.582,592.642,558.427,600.497,553.798,602.556z
	 M636.462,511.289c0.207,3.975-6.123,8.58-8.517,11.047c-6.314,6.505-12.863,12.8-19.834,18.601
	c-13.357,11.115-28.325,20.211-44.973,25.429c-32.005,10.032-63.267,6.506-92.245-10.076c-15.937-9.119-34.997-21.801-46.005-36.786
	c-2.004-2.728-3.701-6.991,0.773-8.613c3.98-1.443,6.897,3.275,9.227,5.647c6.955,7.08,14.42,13.678,22.339,19.663
	c27.675,20.914,57.372,31.166,91.896,24.234c32.657-6.557,57.34-28.306,79.305-52.104
	C631.208,505.323,636.256,507.336,636.462,511.289z M534.385,998.693c4.337-0.174,20.031-3.936,21.432,2.284
	c2.185,9.704-29.137,7.209-33.738,7.175c-7.123-0.053-18.94,1.051-25.363-2.387c-4.7-2.516-4.007-10.558,2.275-8.984
	C510.333,999.653,522.796,999.159,534.385,998.693z M518.342,1029.692c9.266,0.506,18.585,0.108,27.783-1.108
	c3.388-0.448,10.104-3.14,13.199-0.904c2.755,1.991,2.471,5.636,0.011,7.693c-2.985,2.496-10.242,2.207-14.055,2.668
	c-5.119,0.619-10.266,0.992-15.42,1.121c-8.996,0.226-18.024-0.308-26.909-1.75c-4.291-0.696-10.153-1.179-14.097-3.255
	c-5.146-2.707-3.758-11.171,2.523-8.931C499.867,1028.244,509.422,1029.205,518.342,1029.692z M382.562,1121.948
	c-5.861,0.771-14.55-2.88-20.174-4.493c-5.414-1.552-10.779-3.351-16.014-5.431c-2.162-0.859-6.901-2.096-8.368-4.313
	c-1.653-2.499-1.088-6.148,2.092-7.283c2.675-0.954,5.733,1.294,8.148,2.319c11.369,4.829,23.583,8.121,35.763,10.048
	C390.608,1113.835,387.706,1121.271,382.562,1121.948z M369.313,1095.663c-2.432-3.91,0.261-7.861,4.723-7.333
	c1.945,0.23,9.205,3.792,10.604,4.73c4.307,2.887,3.581,10.891-2.818,8.827C378.246,1100.746,371.531,1099.228,369.313,1095.663z
	 M457.867,1062.815c-4.554-4.556,8.491-24.539,14.527-20.605C478.931,1046.466,463.694,1068.643,457.867,1062.815z
	 M543.849,1079.358c3.398,6.535-2.965,9.492-7.761,5.237c-5.173-4.59-11.661-12.889-14.687-19.173
	c-2.505-5.201,3.076-12.057,7.1-6.046C532.978,1066.053,540.228,1072.393,543.849,1079.358z M536.931,1102.051
	c2.228,3.029,7.32,7.801,5.64,11.901c-2.034,4.962-6.498,2.223-8.883-0.408c-6.864-7.571-12.15-16.46-19.358-23.885
	c-2.566-2.643-8.279-6.055-7.613-10.259c0.557-3.522,4.958-5.193,7.651-2.678C522.649,1084.437,530.224,1092.931,536.931,1102.051z
	 M682.756,1104.982c3.249-2.059,10.913-8.179,14.771-7.599c7.458,1.12,3.192,7.532-0.461,9.942
	c-3.883,2.561-9.223,7.155-14.069,7.155C675.277,1114.479,679.37,1107.128,682.756,1104.982z M638.662,1079.325
	c3.742-1.65,9.986-8.458,13.693-3.409c5.659,7.706-21.806,20.495-24.541,11.717C625.887,1081.469,635.056,1080.915,638.662,1079.325
	z M670.328,1092.521c9.464,1.351,0.713,11.667-4.853,11.667C655.807,1104.189,664.005,1091.619,670.328,1092.521z M619.616,1071.48
	c1.639-1.354,6.788-3.923,9.083-3.81c6.143,0.301,5.207,6.16,1.78,8.992c-1.799,1.486-6.768,3.809-9.241,3.809
	C615.027,1080.471,616.491,1074.061,619.616,1071.48z M533.719,937.95c-4.419-4.111,5.233-19.562,11.05-15.906
	C551.015,925.961,539.553,943.378,533.719,937.95z M517.329,767.259c-0.044-32.061-0.855-64.195-3.744-96.138
	c-0.404-4.464-3.991-17.225-0.891-20.831c5.306-6.171,8.329,2.785,8.788,6.828c1.705,15.017,2.78,30.104,3.547,45.196
	c1.705,33.538,1.887,67.158,1.231,100.728c-0.314,16.083-0.841,32.163-1.605,48.232c-0.36,7.56-0.308,15.339-1.26,22.847
	c-0.385,3.039-0.793,6.905-4.928,6.754c-2.553-0.093-4.643-2.378-4.477-4.931C516.344,839.776,517.379,803.502,517.329,767.259z
	 M506.785,959.744c1.06-8.509,1.853-17.051,2.585-25.594c0.579-6.753-0.453-43.314,8.11-42.521
	c8.403,0.778,1.586,38.003,0.99,44.865c-0.531,6.115-0.732,42.732-9.771,41.142C501.932,976.429,506.25,964.038,506.785,959.744z
	 M463.252,1126.421c-4.054,0.491-8.899-0.604-12.963-0.88c-7.435-0.505-18.327,0.831-25.36-1.722
	c-6.321-2.294-4.849-8.656,1.441-9.188c3.895-0.329,8.277,0.562,12.168,0.826c8.718,0.592,17.437,1.184,26.155,1.776
	C471.899,1117.718,468.621,1125.77,463.252,1126.421z M507.129,1126.485c-1.5,1.501-3.223,1.152-5.055,1.358
	c-3.632,0.408-9.728,0.929-13.284,0c-7.631-1.992-4.302-8.526,1.779-9.267c4.293-0.524,8.95,0,13.284,0
	C507.892,1118.575,509.944,1123.668,507.129,1126.485z M588.032,1120.025c2.639-2.92,9.886-1.67,13.378-1.847
	c6.785-0.344,13.563-0.844,20.326-1.49c3.852-0.368,11.696-2.817,15.314-1.354c3.346,1.353,4.553,5.287,1.744,7.882
	c-3.106,2.869-11.14,2.206-15.19,2.603c-10.659,1.044-21.491,2.024-32.209,2.024
	C587.353,1127.843,585.425,1122.909,588.032,1120.025z M545.303,645.859c8.683,3.122-7.242,22.569-12.456,18.917
	C527.026,660.72,539.263,643.688,545.303,645.859z M543.686,898.886c7.139,2.439,0.065,9.365-2.089,12.023
	c-2.876,3.549-7.606,14.793-13.329,11.228C521.589,917.988,537.232,896.681,543.686,898.886z M545.772,680.989
	c-0.347,1.608-3.825,6.096-4.966,7.363c-3.136,3.481-9.233,3.98-9.027-2.119c0.113-3.349,4.071-7.275,6.016-9.589
	C541.177,672.624,546.756,676.431,545.772,680.989z M829.298,132.286c-0.092,3.496-3.449,5.475-6.663,4.185
	c-2.498-1.002-5.465-5.246-7.497-7.229c-5.178-5.052-11.671-10.194-15.929-16.034c-3.023-4.145-1.574-10.548,4.694-7.98
	c2.321,0.951,4.332,3.911,6.039,5.629c4.839,4.872,9.471,10.346,14.803,14.697C826.674,127.125,829.369,129.596,829.298,132.286z
	 M845.285,127.672c2.084,6.138,14.381,32.99,6.172,35.537c-8.33,2.585-13.02-26.894-15.035-32.825
	c-1.866-5.491-17.959-27.717-11.805-31.591C832.502,93.855,843.469,122.321,845.285,127.672z M890.483,128.924
	c-0.621,6.08-1.085,15.994-4.646,21.283c-2.979,4.425-8.817,3.686-8.866-2.178c-0.026-3.183,2.104-7.207,2.783-10.373
	c0.879-4.097,1.42-8.26,1.735-12.436c0.51-6.771,0.326-13.566-0.026-20.339c-0.255-4.916-2.839-14.31-0.5-18.876
	c2.149-4.194,8.875-3.529,8.919,1.728C890.004,101.516,891.891,115.135,890.483,128.924z M869.634,117.482
	c-2.236-2.455-3.268-8.288-4.991-11.343c-3.943-6.99-3.913-14.102-1.404-21.814c2.501-7.687,10.186-6.631,9.016,1.899
	c-0.484,3.532-2.395,7.598-1.618,11.19c1.292,5.971,6.612,10.379,7.394,16.855C878.657,119.491,872.581,120.719,869.634,117.482z
	 M782.53,141.221c3.906-0.088,8.531,5.481,11.238,7.828c4.338,3.762,8.494,7.747,13.009,11.302
	c4.365,3.437,10.346,5.289,14.444,8.65c2.864,2.348,4.59,6.442,0.162,8.604c-4.046,1.976-10.721-3.252-13.97-5.354
	c-10.094-6.528-18.094-15.685-27.777-22.742C775.754,146.688,778.303,141.316,782.53,141.221z M767.229,162.272
	c3.422-1.458,6.317,1.9,9.259,3.181c4.641,2.021,10.773,1.774,14.894,4.96c2.397,1.853,3.972,5.039,1.186,7.601
	c-3.004,2.764-6.685-0.128-9.753-1.138c-5.945-1.957-10.896-3.017-16.321-6.533C763.363,168.317,763.96,163.665,767.229,162.272z
	 M877.051,291.351c-1.989-7.071-5.935-13.431-6.915-20.797c-0.677-5.089-2.047-18.001,1.023-22.221
	c3.576-4.916,7.867-0.458,8.378,3.745c0.907,7.466-1.431,14.502,0.87,21.963c2.152,6.976,5.54,13.223,6.875,20.49
	c0.922,5.02,3.501,16.193,0.919,20.816c-2.269,4.062-8.976,3.306-8.877-1.952C879.461,306.021,879.058,298.485,877.051,291.351z
	 M861.06,316.17c-7.9-0.033-2.85-8.608-1.837-12.123c1.281-4.445-2.305-15.284,3.825-16.663
	C873.557,285.09,870.436,316.209,861.06,316.17z M908.579,265.176c-2.23-6.559-3.862-11.545-4.669-18.407
	c-0.454-3.863-6.896-15.413,1.905-14.732c6.835,0.529,6.971,12.246,7.42,17.213c0.543,6.003,3.71,11.211,5.262,17.046
	c1.967,7.392,3.242,15.253,6.106,22.371c0.947,2.354,3.85,5.177,3.957,7.478c0.158,3.411-3.565,5.867-6.635,4.397
	C911.958,295.758,911.612,274.098,908.579,265.176z M954.733,297.708c-4.773,1.503-9.101-6.054-11.698-8.946
	c-4.112-4.579-6.452-8.789-8.416-14.496c-1.154-3.354-2.674-4.101-4.384-7.294c-1.365-2.55-1.578-5.755-2.79-8.436
	c-1.651-3.651-9.101-10.571-3.615-14.227c5.16-3.439,8.799,4.348,10.706,7.773c1.838,3.302,2.236,7.549,3.992,10.644
	c0.85,1.497,2.758,2.342,3.649,3.887c1.613,2.797,1.235,5.876,2.471,8.817c1.401,3.334,4.272,6.072,6.699,8.655
	C953.856,286.758,962.626,295.223,954.733,297.708z M975.705,271.667c-2.543,3.974-6.122,1.301-9.104-0.122
	c-4.885-2.33-17.242-6.56-19.101-12.302c-2.423-7.486,5.54-5.81,8.996-3.734c5.788,3.477,12.015,6.188,17.74,9.772
	C976.362,266.612,977.068,269.538,975.705,271.667z M904.872,214.56c6.034-2.625,16.85,0.187,23.051,1.227
	c6.578,1.104,12.876,2.237,19.558,2.376c6.823,0.142,15.112-1.336,21.746,0.292c5.599,1.374,7.784,7.689,0.707,9.33
	c-5.734,1.33-14.164-0.261-20.108-0.326c-14.575-0.16-29.218-5.63-43.741-3.711C899.431,224.634,900.106,216.633,904.872,214.56z
	 M975.345,238.033c3.11-0.152,7.705-1.493,10.743-0.566c4.95,1.51,5.239,6.599,0.68,8.881c-3.552,1.778-10.094,0.942-13.932,1.073
	c-6.8,0.232-13.639,0.13-20.398-0.713c-4.929-0.614-15.353-1.189-18.776-5.216c-3.037-3.573,0.204-9.531,5.021-7.57
	C950.108,238.563,963.218,238.626,975.345,238.033z M956.217,159.106c3.698-1.952,7.599-3.475,11.275-5.461
	c3.333-1.801,9.067-7.213,13.154-5.046c10.304,5.463-11.872,14.738-15.402,16.398c-4.427,2.083-9.03,4.305-12.901,7.344
	c-2.879,2.26-6.326,8.197-10.673,5.09C933.295,171.467,952.364,161.139,956.217,159.106z M993.338,170.336
	c-0.141,2.431-1.828,3.277-3.547,4.535c-5.359,3.925-12.781,6.143-19.349,6.286c-3.254,0.071-7.664-0.048-7.664-4.557
	c0-4.477,4.281-4.357,7.478-4.71c6.204-0.686,10.864-2.617,16.179-5.8C989.64,164.184,993.543,166.794,993.338,170.336z
	 M935.672,111.989c-3.289,5.898-4.903,12.64-7.602,18.809c-1.951,4.461-10.444,35.913-18.121,26.95
	c-3.225-3.765,2.454-11.506,3.765-15.474c2.344-7.095,5.557-13.705,8.17-20.675c1.947-5.194,11.708-33.025,20.217-24.932
	C946.912,101.242,937.807,108.161,935.672,111.989z M962.606,119.226c-0.035,2.141-2.148,4.295-3.39,5.862
	c-4.028,5.08-9.422,10.166-14.786,13.815c-7.711,5.246-13.661-0.993-5.868-7.112c5.477-4.301,10.85-8.913,15.1-14.484
	C955.664,112.559,962.684,114.376,962.606,119.226z M284.762,305.108c-2.459,2.949-6.789,1.645-8.029-1.666
	c-3.327,1.81-13.401,9.729-14.814,1.363c-0.954-5.649,6.812-6.005,9.547-9.041c2.71-0.477,3.145-1.823,1.306-4.036
	c-0.342-0.895-0.685-1.79-1.027-2.685c-0.168-2.357-0.44-4.036,1.823-5.513c5.19-3.388,7.328,3.407,8.671,6.926
	c2.903-1.28,6.244-2.748,8.438,0.45c1.598,2.328,0.745,5.695-1.936,6.835C283.307,300.048,287.823,301.437,284.762,305.108z
	 M309.148,319.735c-5.048,0.601-4.389-4.037-5.861-6.993c-2.545-5.113-3.145-1.278-7.846,0.491
	c-3.845,1.447-10.182,1.217-7.88-4.985c1.352-3.644,16.669-11.711,20.798-11.63c5.479,0.108,4.483,4.27,3.755,7.666
	c-0.221,1.033-1.405,0.942-1.532,1.962c-0.122,0.972,1.714,4.196,1.943,5.228C313.26,314.771,313.815,319.179,309.148,319.735z
	 M348.122,325.188c-3.245-0.039-7.617-1.23-6.224-5.728c1.165-3.761,5.788-3.276,8.759-4.548
	C358.084,311.758,359.064,325.318,348.122,325.188z M734.611,323.973c-5.937-3.28,2.647-17.353,8.283-14.675
	C749.748,312.555,740.697,327.336,734.611,323.973z M755.296,318.16c-4.36-3.51,4.345-20.657,10.359-17.453
	C772.042,304.122,761.223,322.93,755.296,318.16z M783.438,306.243c-4.653-4.184,5.46-20.411,11.289-16.898
	C801.016,293.162,789.46,311.66,783.438,306.243z M455.177,488.629c-0.347,2.41-2.503,3.47-4.192,4.835
	c-3.165,2.558-7.417,6.819-11.204,8.393c-7.681,3.192-8.523-4.797-3.659-8.837c3.73-3.098,7.807-5.848,11.689-8.757
	C451.039,481.844,455.748,484.657,455.177,488.629z M463.172,500.958c4.51,5.554-11.565,18.947-16.14,13.485
	C442.501,509.019,458.668,495.412,463.172,500.958z M472.078,513.296c4.494,5.125-8.404,16.604-12.987,11.388
	C454.552,519.505,467.52,508.098,472.078,513.296z M486.52,528.736c8.643,1.251,1.239,12.245-4.279,12.245
	C472.948,540.981,480.273,527.832,486.52,528.736z M506.158,543.548c-1.034,1.412-3.863,3.7-5.358,4.414
	c-4.201,2.005-9.13-0.764-7.055-5.722c0.975-2.33,4.66-4.31,6.518-5.841C505.341,532.213,509.309,539.243,506.158,543.548z
	 M575.376,525.367c2.143,2.323,14.887,15.034,3.634,15.213c-4.334,0.069-5.764-5.72-9.023-7.396
	c-2.956-1.52-1.426-1.272-4.949,0.708c-1.369,0.77-2.648,1.874-3.943,2.77c2.08,2.752,5.603,6.487,2.371,9.764
	c-4.193,4.252-7.613-1.358-9.882-4.346c-6.891,5.166-13.118-1.743-5.945-7.127c-2.376-2.589-8.73-6.779-9.605-10.356
	c-0.807-3.299,1.676-5.911,4.934-5.71c4.5,0.278,6.897,6.497,10.386,8.571c2.528,1.503,0.738,1.619,3.338,0.982
	c1.415-0.347,4.371-3.119,5.475-3.996c-2.659-3.119-9.435-8.537-5.793-12.934c4.758-5.745,10.221,3.841,12.852,6.926
	c2.587-2.291,6.426-6.278,9.784-2.545C582.424,519.69,577.992,523.051,575.376,525.367z M586.79,507.206
	c-2.654-5.484,1.722-9.507,6.908-6.178c3.702,2.376,7.501,8.548,9.852,12.255c1.453,2.292,3.457,4.591,1.633,7.373
	c-1.78,2.715-5.865,2.828-7.722,0.123C594.513,516.487,588.987,511.746,586.79,507.206z M536.965,555.495
	c-4.676-1.717-8.84-8.627-11.977-12.328c-1.99-2.347-5.371-5.233-3.625-8.678c1.441-2.844,4.58-2.858,6.954-1.461
	c4.206,2.476,7.8,8.982,10.992,12.611C546.211,548.447,544.808,558.374,536.965,555.495z M415.192,261.969
	c-1.852-2.193-16.311-17.719-3.894-16.869c5.558,0.38,12.705,12.942,15.823,16.634c1.905,2.255,16.739,17.517,4.821,17.517
	C426.159,279.251,418.391,265.756,415.192,261.969z M434.126,256.236c-3.742-4.966-0.908-11.92,5.634-7.583
	c3.198,2.12,6.897,7.003,9.16,10.089c1.33,1.813,2.859,2.928,2.214,5.552c-0.851,3.463-5.359,4.766-7.847,2.031
	C440.27,263.003,436.822,259.815,434.126,256.236z M638.203,256.122c3.823,4.866,0.02,10.366-5.764,7.286
	c-2.93-1.56-7.047-5.696-9.137-8.293c-3.602-4.477,0.226-12.307,5.496-7.524C631.804,250.318,635.705,252.943,638.203,256.122z
	 M666.64,259.105c4.687,4.296,4.046,12.39-3.895,8.849c-3.896-1.737-8.207-6.751-11.35-9.632c-1.562-1.432-3.524-2.566-3.723-4.936
	c-0.337-3.997,4.542-6.528,7.613-3.913C659.061,252.676,662.99,255.76,666.64,259.105z M526.409,423.711
	c-2.912-2.986-16.816-13.375-11.533-18.465c5.277-5.084,14.628,8.365,17.569,11.382c2.973,3.049,17.432,13.914,12.134,19.081
	C539.307,440.857,529.377,426.755,526.409,423.711z M532.746,400.662c-6.435-5.973-13.349-11.807-19.26-18.303
	c-6.649-7.307-1.007-13.072,6.466-6.644c13.295,11.437,25.522,24.255,38.671,35.899c3.292,2.915,6.601,5.811,9.927,8.688
	c2.806,2.426,8.075,5.421,10.003,8.547c2.652,4.301-0.759,11.488-5.979,7.083C559.024,424.491,545.745,412.727,532.746,400.662z
	 M547.702,446.292c0.68-5.437,5.601-3.969,8.573-2.004c2.892,1.912,9.894,8.372,9.331,12.456c-0.544,3.944-5.721,5.524-8.256,2.269
	C554.912,455.874,547.143,450.756,547.702,446.292z M501.008,436.411c-3.201-3.452-7.216-6.835-9.918-10.697
	c-3.548-5.07-0.221-11.062,5.943-7.216c2.442,1.524,4.658,5.023,6.59,7.107c4.647,5.012,9.294,10.023,13.94,15.035
	c3.336,3.598,7.345,7.095,10.251,11.056c3.452,4.704-0.516,13.092-5.715,7.462C515.068,451.576,508.038,443.994,501.008,436.411z
	 M426.784,440.074c-1.943-2.186-14.994-16.148-3.063-15.355c5.188,0.345,11.439,10.829,14.467,14.235
	c2.083,2.343,14.76,15.362,3.339,15.362C436.316,454.316,429.744,443.404,426.784,440.074z M231.061,258.173
	c-1.212,1.83-4.819,5.03-6.776,6.024c-5.439,2.764-9.528-1.84-6.16-6.926c1.508-2.277,4.723-4.199,6.776-6.024
	C229.859,246.858,233.985,253.759,231.061,258.173z M978.345,195.109c-5.954,1.846-15.504-0.835-21.547-1.573
	c-6.043-0.737-12.062-1.549-18.153-1.706c-3.326-0.086-6.716-0.159-10.036,0.092c-2.61,0.197-6.071,1.695-8.576,1.446
	c-5.553-0.551-6.886-5.787-2.104-8.883c5.101-3.303,15.158-2.071,20.96-1.922c12.993,0.334,25.968,3.972,38.979,3.291
	C984.439,185.484,983.441,193.528,978.345,195.109z"/>
</svg>
